<svg width="280" height="38" viewBox="0 0 280 38" fill="none" xmlns="http://www.w3.org/2000/svg">
<rect x="1" y="1" width="278" height="36" rx="18" stroke="#FF1C29" stroke-width="2"/>
<path d="M34.688 25.096C33.8453 25.096 33.0667 24.9573 32.352 24.68C31.6373 24.392 31.0187 23.992 30.496 23.48C29.9733 22.968 29.5627 22.3653 29.264 21.672C28.976 20.9787 28.832 20.2213 28.832 19.4C28.832 18.5787 28.976 17.8213 29.264 17.128C29.5627 16.4347 29.9733 15.832 30.496 15.32C31.0293 14.808 31.6533 14.4133 32.368 14.136C33.0827 13.848 33.8613 13.704 34.704 13.704C35.5147 13.704 36.2773 13.8427 36.992 14.12C37.7067 14.3867 38.3093 14.792 38.8 15.336L38.048 16.088C37.5893 15.6187 37.0827 15.2827 36.528 15.08C35.9733 14.8667 35.376 14.76 34.736 14.76C34.064 14.76 33.44 14.8773 32.864 15.112C32.288 15.336 31.7867 15.6613 31.36 16.088C30.9333 16.504 30.5973 16.9947 30.352 17.56C30.1173 18.1147 30 18.728 30 19.4C30 20.072 30.1173 20.6907 30.352 21.256C30.5973 21.8107 30.9333 22.3013 31.36 22.728C31.7867 23.144 32.288 23.4693 32.864 23.704C33.44 23.928 34.064 24.04 34.736 24.04C35.376 24.04 35.9733 23.9333 36.528 23.72C37.0827 23.5067 37.5893 23.1653 38.048 22.696L38.8 23.448C38.3093 23.992 37.7067 24.4027 36.992 24.68C36.2773 24.9573 35.5093 25.096 34.688 25.096ZM44.133 25.08C43.3223 25.08 42.5917 24.8987 41.941 24.536C41.301 24.1627 40.7943 23.656 40.421 23.016C40.0477 22.3653 39.861 21.624 39.861 20.792C39.861 19.9493 40.0477 19.208 40.421 18.568C40.7943 17.928 41.301 17.4267 41.941 17.064C42.581 16.7013 43.3117 16.52 44.133 16.52C44.965 16.52 45.701 16.7013 46.341 17.064C46.9917 17.4267 47.4983 17.928 47.861 18.568C48.2343 19.208 48.421 19.9493 48.421 20.792C48.421 21.624 48.2343 22.3653 47.861 23.016C47.4983 23.656 46.9917 24.1627 46.341 24.536C45.6903 24.8987 44.9543 25.08 44.133 25.08ZM44.133 24.072C44.741 24.072 45.2797 23.9387 45.749 23.672C46.2183 23.3947 46.5863 23.0107 46.853 22.52C47.1303 22.0187 47.269 21.4427 47.269 20.792C47.269 20.1307 47.1303 19.5547 46.853 19.064C46.5863 18.5733 46.2183 18.1947 45.749 17.928C45.2797 17.6507 44.7463 17.512 44.149 17.512C43.5517 17.512 43.0183 17.6507 42.549 17.928C42.0797 18.1947 41.7063 18.5733 41.429 19.064C41.1517 19.5547 41.013 20.1307 41.013 20.792C41.013 21.4427 41.1517 22.0187 41.429 22.52C41.7063 23.0107 42.0797 23.3947 42.549 23.672C43.0183 23.9387 43.5463 24.072 44.133 24.072ZM55.0283 16.52C55.7109 16.52 56.3083 16.6533 56.8203 16.92C57.3429 17.176 57.7483 17.5707 58.0363 18.104C58.3349 18.6373 58.4843 19.3093 58.4843 20.12V25H57.3483V20.232C57.3483 19.3467 57.1243 18.68 56.6763 18.232C56.2389 17.7733 55.6203 17.544 54.8203 17.544C54.2229 17.544 53.7003 17.6667 53.2523 17.912C52.8149 18.1467 52.4736 18.4933 52.2283 18.952C51.9936 19.4 51.8763 19.944 51.8763 20.584V25H50.7403V16.6H51.8283V18.904L51.6523 18.472C51.9189 17.864 52.3456 17.3893 52.9323 17.048C53.5189 16.696 54.2176 16.52 55.0283 16.52ZM61.7448 25V15.544C61.7448 14.7973 61.9634 14.1947 62.4008 13.736C62.8381 13.2773 63.4674 13.048 64.2888 13.048C64.6088 13.048 64.9181 13.0907 65.2168 13.176C65.5154 13.2613 65.7661 13.3947 65.9688 13.576L65.5848 14.424C65.4248 14.2853 65.2381 14.184 65.0248 14.12C64.8114 14.0453 64.5821 14.008 64.3368 14.008C63.8568 14.008 63.4888 14.1413 63.2328 14.408C62.9768 14.6747 62.8488 15.0693 62.8488 15.592V16.872L62.8808 17.4V25H61.7448ZM60.2408 17.544V16.6H65.4408V17.544H60.2408ZM66.9768 25V16.6H68.1128V25H66.9768ZM67.5528 14.744C67.3181 14.744 67.1208 14.664 66.9608 14.504C66.8008 14.344 66.7208 14.152 66.7208 13.928C66.7208 13.704 66.8008 13.5173 66.9608 13.368C67.1208 13.208 67.3181 13.128 67.5528 13.128C67.7874 13.128 67.9848 13.2027 68.1448 13.352C68.3048 13.5013 68.3848 13.688 68.3848 13.912C68.3848 14.1467 68.3048 14.344 68.1448 14.504C67.9954 14.664 67.7981 14.744 67.5528 14.744ZM71.3028 25V16.6H72.3908V18.888L72.2788 18.488C72.5134 17.848 72.9081 17.3627 73.4628 17.032C74.0174 16.6907 74.7054 16.52 75.5268 16.52V17.624C75.4841 17.624 75.4414 17.624 75.3988 17.624C75.3561 17.6133 75.3134 17.608 75.2708 17.608C74.3854 17.608 73.6921 17.88 73.1908 18.424C72.6894 18.9573 72.4388 19.72 72.4388 20.712V25H71.3028ZM82.2386 25V23.144L82.1906 22.84V19.736C82.1906 19.0213 81.988 18.472 81.5826 18.088C81.188 17.704 80.596 17.512 79.8066 17.512C79.2626 17.512 78.7453 17.6027 78.2546 17.784C77.764 17.9653 77.348 18.2053 77.0066 18.504L76.4946 17.656C76.9213 17.2933 77.4333 17.016 78.0306 16.824C78.628 16.6213 79.2573 16.52 79.9186 16.52C81.0066 16.52 81.844 16.792 82.4306 17.336C83.028 17.8693 83.3266 18.6853 83.3266 19.784V25H82.2386ZM79.3426 25.08C78.7133 25.08 78.164 24.9787 77.6946 24.776C77.236 24.5627 76.884 24.2747 76.6386 23.912C76.3933 23.5387 76.2706 23.112 76.2706 22.632C76.2706 22.1947 76.372 21.8 76.5746 21.448C76.788 21.0853 77.1293 20.7973 77.5986 20.584C78.0786 20.36 78.7186 20.248 79.5186 20.248H82.4146V21.096H79.5506C78.74 21.096 78.1746 21.24 77.8546 21.528C77.5453 21.816 77.3906 22.1733 77.3906 22.6C77.3906 23.08 77.5773 23.464 77.9506 23.752C78.324 24.04 78.8466 24.184 79.5186 24.184C80.1586 24.184 80.708 24.04 81.1666 23.752C81.636 23.4533 81.9773 23.0267 82.1906 22.472L82.4466 23.256C82.2333 23.8107 81.86 24.2533 81.3266 24.584C80.804 24.9147 80.1426 25.08 79.3426 25.08ZM93.2556 25.08C92.4663 25.08 91.8583 24.8667 91.4316 24.44C91.005 24.0133 90.7916 23.4107 90.7916 22.632V14.744H91.9276V22.568C91.9276 23.0587 92.0503 23.4373 92.2956 23.704C92.5516 23.9707 92.9143 24.104 93.3836 24.104C93.885 24.104 94.301 23.96 94.6316 23.672L95.0316 24.488C94.8076 24.6907 94.5356 24.84 94.2156 24.936C93.9063 25.032 93.5863 25.08 93.2556 25.08ZM89.2876 17.544V16.6H94.4876V17.544H89.2876ZM100.227 25.08C99.4161 25.08 98.6854 24.8987 98.0348 24.536C97.3948 24.1627 96.8881 23.656 96.5148 23.016C96.1414 22.3653 95.9548 21.624 95.9548 20.792C95.9548 19.9493 96.1414 19.208 96.5148 18.568C96.8881 17.928 97.3948 17.4267 98.0348 17.064C98.6748 16.7013 99.4054 16.52 100.227 16.52C101.059 16.52 101.795 16.7013 102.435 17.064C103.085 17.4267 103.592 17.928 103.955 18.568C104.328 19.208 104.515 19.9493 104.515 20.792C104.515 21.624 104.328 22.3653 103.955 23.016C103.592 23.656 103.085 24.1627 102.435 24.536C101.784 24.8987 101.048 25.08 100.227 25.08ZM100.227 24.072C100.835 24.072 101.373 23.9387 101.843 23.672C102.312 23.3947 102.68 23.0107 102.947 22.52C103.224 22.0187 103.363 21.4427 103.363 20.792C103.363 20.1307 103.224 19.5547 102.947 19.064C102.68 18.5733 102.312 18.1947 101.843 17.928C101.373 17.6507 100.84 17.512 100.243 17.512C99.6454 17.512 99.1121 17.6507 98.6428 17.928C98.1734 18.1947 97.8001 18.5733 97.5228 19.064C97.2454 19.5547 97.1068 20.1307 97.1068 20.792C97.1068 21.4427 97.2454 22.0187 97.5228 22.52C97.8001 23.0107 98.1734 23.3947 98.6428 23.672C99.1121 23.9387 99.6401 24.072 100.227 24.072ZM110.178 25.08C109.378 25.08 108.658 24.8987 108.018 24.536C107.389 24.1733 106.893 23.672 106.53 23.032C106.167 22.3813 105.986 21.6347 105.986 20.792C105.986 19.9387 106.167 19.192 106.53 18.552C106.893 17.912 107.389 17.416 108.018 17.064C108.658 16.7013 109.378 16.52 110.178 16.52C110.914 16.52 111.57 16.6853 112.146 17.016C112.733 17.3467 113.197 17.832 113.538 18.472C113.89 19.1013 114.066 19.8747 114.066 20.792C114.066 21.6987 113.895 22.472 113.554 23.112C113.213 23.752 112.749 24.2427 112.162 24.584C111.586 24.9147 110.925 25.08 110.178 25.08ZM110.258 24.072C110.855 24.072 111.389 23.9387 111.858 23.672C112.338 23.3947 112.711 23.0107 112.978 22.52C113.255 22.0187 113.394 21.4427 113.394 20.792C113.394 20.1307 113.255 19.5547 112.978 19.064C112.711 18.5733 112.338 18.1947 111.858 17.928C111.389 17.6507 110.855 17.512 110.258 17.512C109.671 17.512 109.143 17.6507 108.674 17.928C108.205 18.1947 107.831 18.5733 107.554 19.064C107.277 19.5547 107.138 20.1307 107.138 20.792C107.138 21.4427 107.277 22.0187 107.554 22.52C107.831 23.0107 108.205 23.3947 108.674 23.672C109.143 23.9387 109.671 24.072 110.258 24.072ZM113.426 25V22.472L113.538 20.776L113.378 19.08V13.128H114.514V25H113.426ZM121.102 25.08C120.291 25.08 119.56 24.8987 118.91 24.536C118.27 24.1627 117.763 23.656 117.39 23.016C117.016 22.3653 116.83 21.624 116.83 20.792C116.83 19.9493 117.016 19.208 117.39 18.568C117.763 17.928 118.27 17.4267 118.91 17.064C119.55 16.7013 120.28 16.52 121.102 16.52C121.934 16.52 122.67 16.7013 123.31 17.064C123.96 17.4267 124.467 17.928 124.83 18.568C125.203 19.208 125.39 19.9493 125.39 20.792C125.39 21.624 125.203 22.3653 124.83 23.016C124.467 23.656 123.96 24.1627 123.31 24.536C122.659 24.8987 121.923 25.08 121.102 25.08ZM121.102 24.072C121.71 24.072 122.248 23.9387 122.718 23.672C123.187 23.3947 123.555 23.0107 123.822 22.52C124.099 22.0187 124.238 21.4427 124.238 20.792C124.238 20.1307 124.099 19.5547 123.822 19.064C123.555 18.5733 123.187 18.1947 122.718 17.928C122.248 17.6507 121.715 17.512 121.118 17.512C120.52 17.512 119.987 17.6507 119.518 17.928C119.048 18.1947 118.675 18.5733 118.398 19.064C118.12 19.5547 117.982 20.1307 117.982 20.792C117.982 21.4427 118.12 22.0187 118.398 22.52C118.675 23.0107 119.048 23.3947 119.518 23.672C119.987 23.9387 120.515 24.072 121.102 24.072ZM129.965 25.08C129.272 25.08 128.616 24.984 127.997 24.792C127.378 24.5893 126.893 24.3387 126.541 24.04L127.053 23.144C127.394 23.4 127.832 23.624 128.365 23.816C128.898 23.9973 129.458 24.088 130.045 24.088C130.845 24.088 131.421 23.9653 131.773 23.72C132.125 23.464 132.301 23.128 132.301 22.712C132.301 22.4027 132.2 22.1627 131.997 21.992C131.805 21.8107 131.549 21.6773 131.229 21.592C130.909 21.496 130.552 21.416 130.157 21.352C129.762 21.288 129.368 21.2133 128.973 21.128C128.589 21.0427 128.237 20.92 127.917 20.76C127.597 20.5893 127.336 20.36 127.133 20.072C126.941 19.784 126.845 19.4 126.845 18.92C126.845 18.4613 126.973 18.0507 127.229 17.688C127.485 17.3253 127.858 17.0427 128.349 16.84C128.85 16.6267 129.458 16.52 130.173 16.52C130.717 16.52 131.261 16.5947 131.805 16.744C132.349 16.8827 132.797 17.0693 133.149 17.304L132.653 18.216C132.28 17.96 131.88 17.7787 131.453 17.672C131.026 17.5547 130.6 17.496 130.173 17.496C129.416 17.496 128.856 17.6293 128.493 17.896C128.141 18.152 127.965 18.4827 127.965 18.888C127.965 19.208 128.061 19.4587 128.253 19.64C128.456 19.8213 128.717 19.9653 129.037 20.072C129.368 20.168 129.725 20.248 130.109 20.312C130.504 20.376 130.893 20.456 131.277 20.552C131.672 20.6373 132.029 20.76 132.349 20.92C132.68 21.0693 132.941 21.288 133.133 21.576C133.336 21.8533 133.437 22.2213 133.437 22.68C133.437 23.1707 133.298 23.5973 133.021 23.96C132.754 24.312 132.36 24.5893 131.837 24.792C131.325 24.984 130.701 25.08 129.965 25.08ZM143.133 25.08C142.322 25.08 141.592 24.8987 140.941 24.536C140.301 24.1627 139.794 23.656 139.421 23.016C139.048 22.3653 138.861 21.624 138.861 20.792C138.861 19.9493 139.048 19.208 139.421 18.568C139.794 17.928 140.301 17.4267 140.941 17.064C141.581 16.7013 142.312 16.52 143.133 16.52C143.965 16.52 144.701 16.7013 145.341 17.064C145.992 17.4267 146.498 17.928 146.861 18.568C147.234 19.208 147.421 19.9493 147.421 20.792C147.421 21.624 147.234 22.3653 146.861 23.016C146.498 23.656 145.992 24.1627 145.341 24.536C144.69 24.8987 143.954 25.08 143.133 25.08ZM143.133 24.072C143.741 24.072 144.28 23.9387 144.749 23.672C145.218 23.3947 145.586 23.0107 145.853 22.52C146.13 22.0187 146.269 21.4427 146.269 20.792C146.269 20.1307 146.13 19.5547 145.853 19.064C145.586 18.5733 145.218 18.1947 144.749 17.928C144.28 17.6507 143.746 17.512 143.149 17.512C142.552 17.512 142.018 17.6507 141.549 17.928C141.08 18.1947 140.706 18.5733 140.429 19.064C140.152 19.5547 140.013 20.1307 140.013 20.792C140.013 21.4427 140.152 22.0187 140.429 22.52C140.706 23.0107 141.08 23.3947 141.549 23.672C142.018 23.9387 142.546 24.072 143.133 24.072ZM151.996 25.08C151.303 25.08 150.647 24.984 150.028 24.792C149.41 24.5893 148.924 24.3387 148.572 24.04L149.084 23.144C149.426 23.4 149.863 23.624 150.396 23.816C150.93 23.9973 151.49 24.088 152.076 24.088C152.876 24.088 153.452 23.9653 153.804 23.72C154.156 23.464 154.332 23.128 154.332 22.712C154.332 22.4027 154.231 22.1627 154.028 21.992C153.836 21.8107 153.58 21.6773 153.26 21.592C152.94 21.496 152.583 21.416 152.188 21.352C151.794 21.288 151.399 21.2133 151.004 21.128C150.62 21.0427 150.268 20.92 149.948 20.76C149.628 20.5893 149.367 20.36 149.164 20.072C148.972 19.784 148.876 19.4 148.876 18.92C148.876 18.4613 149.004 18.0507 149.26 17.688C149.516 17.3253 149.89 17.0427 150.38 16.84C150.882 16.6267 151.49 16.52 152.204 16.52C152.748 16.52 153.292 16.5947 153.836 16.744C154.38 16.8827 154.828 17.0693 155.18 17.304L154.684 18.216C154.311 17.96 153.911 17.7787 153.484 17.672C153.058 17.5547 152.631 17.496 152.204 17.496C151.447 17.496 150.887 17.6293 150.524 17.896C150.172 18.152 149.996 18.4827 149.996 18.888C149.996 19.208 150.092 19.4587 150.284 19.64C150.487 19.8213 150.748 19.9653 151.068 20.072C151.399 20.168 151.756 20.248 152.14 20.312C152.535 20.376 152.924 20.456 153.308 20.552C153.703 20.6373 154.06 20.76 154.38 20.92C154.711 21.0693 154.972 21.288 155.164 21.576C155.367 21.8533 155.468 22.2213 155.468 22.68C155.468 23.1707 155.33 23.5973 155.052 23.96C154.786 24.312 154.391 24.5893 153.868 24.792C153.356 24.984 152.732 25.08 151.996 25.08ZM161.74 25V16.6H162.876V25H161.74ZM162.316 14.744C162.082 14.744 161.884 14.664 161.724 14.504C161.564 14.344 161.484 14.152 161.484 13.928C161.484 13.704 161.564 13.5173 161.724 13.368C161.884 13.208 162.082 13.128 162.316 13.128C162.551 13.128 162.748 13.2027 162.908 13.352C163.068 13.5013 163.148 13.688 163.148 13.912C163.148 14.1467 163.068 14.344 162.908 14.504C162.759 14.664 162.562 14.744 162.316 14.744ZM170.325 16.52C171.008 16.52 171.605 16.6533 172.117 16.92C172.64 17.176 173.045 17.5707 173.333 18.104C173.632 18.6373 173.781 19.3093 173.781 20.12V25H172.645V20.232C172.645 19.3467 172.421 18.68 171.973 18.232C171.536 17.7733 170.917 17.544 170.117 17.544C169.52 17.544 168.997 17.6667 168.549 17.912C168.112 18.1467 167.77 18.4933 167.525 18.952C167.29 19.4 167.173 19.944 167.173 20.584V25H166.037V16.6H167.125V18.904L166.949 18.472C167.216 17.864 167.642 17.3893 168.229 17.048C168.816 16.696 169.514 16.52 170.325 16.52ZM179.506 25.08C178.716 25.08 178.108 24.8667 177.682 24.44C177.255 24.0133 177.042 23.4107 177.042 22.632V14.744H178.178V22.568C178.178 23.0587 178.3 23.4373 178.546 23.704C178.802 23.9707 179.164 24.104 179.634 24.104C180.135 24.104 180.551 23.96 180.882 23.672L181.282 24.488C181.058 24.6907 180.786 24.84 180.466 24.936C180.156 25.032 179.836 25.08 179.506 25.08ZM175.538 17.544V16.6H180.738V17.544H175.538ZM186.621 25.08C185.746 25.08 184.978 24.8987 184.317 24.536C183.655 24.1627 183.138 23.656 182.765 23.016C182.391 22.3653 182.205 21.624 182.205 20.792C182.205 19.96 182.381 19.224 182.733 18.584C183.095 17.944 183.586 17.4427 184.205 17.08C184.834 16.7067 185.538 16.52 186.317 16.52C187.106 16.52 187.805 16.7013 188.413 17.064C189.031 17.416 189.517 17.9173 189.869 18.568C190.221 19.208 190.397 19.9493 190.397 20.792C190.397 20.8453 190.391 20.904 190.381 20.968C190.381 21.0213 190.381 21.08 190.381 21.144H183.069V20.296H189.773L189.325 20.632C189.325 20.024 189.191 19.4853 188.925 19.016C188.669 18.536 188.317 18.1627 187.869 17.896C187.421 17.6293 186.903 17.496 186.317 17.496C185.741 17.496 185.223 17.6293 184.765 17.896C184.306 18.1627 183.949 18.536 183.693 19.016C183.437 19.496 183.309 20.0453 183.309 20.664V20.84C183.309 21.48 183.447 22.0453 183.725 22.536C184.013 23.016 184.407 23.3947 184.909 23.672C185.421 23.9387 186.002 24.072 186.653 24.072C187.165 24.072 187.639 23.9813 188.077 23.8C188.525 23.6187 188.909 23.3413 189.229 22.968L189.869 23.704C189.495 24.152 189.026 24.4933 188.461 24.728C187.906 24.9627 187.293 25.08 186.621 25.08ZM196.293 28.184C195.525 28.184 194.789 28.072 194.085 27.848C193.381 27.624 192.81 27.304 192.373 26.888L192.949 26.024C193.344 26.376 193.829 26.6533 194.405 26.856C194.992 27.0693 195.61 27.176 196.261 27.176C197.328 27.176 198.112 26.9253 198.613 26.424C199.114 25.9333 199.365 25.1653 199.365 24.12V22.024L199.525 20.584L199.413 19.144V16.6H200.501V23.976C200.501 25.4267 200.144 26.488 199.429 27.16C198.725 27.8427 197.68 28.184 196.293 28.184ZM196.085 24.68C195.285 24.68 194.565 24.5093 193.925 24.168C193.285 23.816 192.778 23.3307 192.405 22.712C192.042 22.0933 191.861 21.384 191.861 20.584C191.861 19.784 192.042 19.08 192.405 18.472C192.778 17.8533 193.285 17.3733 193.925 17.032C194.565 16.6907 195.285 16.52 196.085 16.52C196.832 16.52 197.504 16.6747 198.101 16.984C198.698 17.2933 199.173 17.752 199.525 18.36C199.877 18.968 200.053 19.7093 200.053 20.584C200.053 21.4587 199.877 22.2 199.525 22.808C199.173 23.416 198.698 23.88 198.101 24.2C197.504 24.52 196.832 24.68 196.085 24.68ZM196.197 23.672C196.816 23.672 197.365 23.544 197.845 23.288C198.325 23.0213 198.704 22.6587 198.981 22.2C199.258 21.7307 199.397 21.192 199.397 20.584C199.397 19.976 199.258 19.4427 198.981 18.984C198.704 18.5253 198.325 18.168 197.845 17.912C197.365 17.6453 196.816 17.512 196.197 17.512C195.589 17.512 195.04 17.6453 194.549 17.912C194.069 18.168 193.69 18.5253 193.413 18.984C193.146 19.4427 193.013 19.976 193.013 20.584C193.013 21.192 193.146 21.7307 193.413 22.2C193.69 22.6587 194.069 23.0213 194.549 23.288C195.04 23.544 195.589 23.672 196.197 23.672ZM203.662 25V16.6H204.75V18.888L204.638 18.488C204.873 17.848 205.267 17.3627 205.822 17.032C206.377 16.6907 207.065 16.52 207.886 16.52V17.624C207.843 17.624 207.801 17.624 207.758 17.624C207.715 17.6133 207.673 17.608 207.63 17.608C206.745 17.608 206.051 17.88 205.55 18.424C205.049 18.9573 204.798 19.72 204.798 20.712V25H203.662ZM214.598 25V23.144L214.55 22.84V19.736C214.55 19.0213 214.347 18.472 213.942 18.088C213.547 17.704 212.955 17.512 212.166 17.512C211.622 17.512 211.105 17.6027 210.614 17.784C210.123 17.9653 209.707 18.2053 209.366 18.504L208.854 17.656C209.281 17.2933 209.793 17.016 210.39 16.824C210.987 16.6213 211.617 16.52 212.278 16.52C213.366 16.52 214.203 16.792 214.79 17.336C215.387 17.8693 215.686 18.6853 215.686 19.784V25H214.598ZM211.702 25.08C211.073 25.08 210.523 24.9787 210.054 24.776C209.595 24.5627 209.243 24.2747 208.998 23.912C208.753 23.5387 208.63 23.112 208.63 22.632C208.63 22.1947 208.731 21.8 208.934 21.448C209.147 21.0853 209.489 20.7973 209.958 20.584C210.438 20.36 211.078 20.248 211.878 20.248H214.774V21.096H211.91C211.099 21.096 210.534 21.24 210.214 21.528C209.905 21.816 209.75 22.1733 209.75 22.6C209.75 23.08 209.937 23.464 210.31 23.752C210.683 24.04 211.206 24.184 211.878 24.184C212.518 24.184 213.067 24.04 213.526 23.752C213.995 23.4533 214.337 23.0267 214.55 22.472L214.806 23.256C214.593 23.8107 214.219 24.2533 213.686 24.584C213.163 24.9147 212.502 25.08 211.702 25.08ZM223.06 16.52C223.742 16.52 224.34 16.6533 224.852 16.92C225.374 17.176 225.78 17.5707 226.068 18.104C226.366 18.6373 226.516 19.3093 226.516 20.12V25H225.38V20.232C225.38 19.3467 225.156 18.68 224.708 18.232C224.27 17.7733 223.652 17.544 222.852 17.544C222.254 17.544 221.732 17.6667 221.284 17.912C220.846 18.1467 220.505 18.4933 220.26 18.952C220.025 19.4 219.908 19.944 219.908 20.584V25H218.772V16.6H219.86V18.904L219.684 18.472C219.95 17.864 220.377 17.3893 220.964 17.048C221.55 16.696 222.249 16.52 223.06 16.52ZM232.24 25.08C231.451 25.08 230.843 24.8667 230.416 24.44C229.989 24.0133 229.776 23.4107 229.776 22.632V14.744H230.912V22.568C230.912 23.0587 231.035 23.4373 231.28 23.704C231.536 23.9707 231.899 24.104 232.368 24.104C232.869 24.104 233.285 23.96 233.616 23.672L234.016 24.488C233.792 24.6907 233.52 24.84 233.2 24.936C232.891 25.032 232.571 25.08 232.24 25.08ZM228.272 17.544V16.6H233.472V17.544H228.272ZM239.355 25.08C238.48 25.08 237.712 24.8987 237.051 24.536C236.39 24.1627 235.872 23.656 235.499 23.016C235.126 22.3653 234.939 21.624 234.939 20.792C234.939 19.96 235.115 19.224 235.467 18.584C235.83 17.944 236.32 17.4427 236.939 17.08C237.568 16.7067 238.272 16.52 239.051 16.52C239.84 16.52 240.539 16.7013 241.147 17.064C241.766 17.416 242.251 17.9173 242.603 18.568C242.955 19.208 243.131 19.9493 243.131 20.792C243.131 20.8453 243.126 20.904 243.115 20.968C243.115 21.0213 243.115 21.08 243.115 21.144H235.803V20.296H242.507L242.059 20.632C242.059 20.024 241.926 19.4853 241.659 19.016C241.403 18.536 241.051 18.1627 240.603 17.896C240.155 17.6293 239.638 17.496 239.051 17.496C238.475 17.496 237.958 17.6293 237.499 17.896C237.04 18.1627 236.683 18.536 236.427 19.016C236.171 19.496 236.043 20.0453 236.043 20.664V20.84C236.043 21.48 236.182 22.0453 236.459 22.536C236.747 23.016 237.142 23.3947 237.643 23.672C238.155 23.9387 238.736 24.072 239.387 24.072C239.899 24.072 240.374 23.9813 240.811 23.8C241.259 23.6187 241.643 23.3413 241.963 22.968L242.603 23.704C242.23 24.152 241.76 24.4933 241.195 24.728C240.64 24.9627 240.027 25.08 239.355 25.08ZM247.699 25.08C247.006 25.08 246.35 24.984 245.731 24.792C245.113 24.5893 244.627 24.3387 244.275 24.04L244.787 23.144C245.129 23.4 245.566 23.624 246.099 23.816C246.633 23.9973 247.193 24.088 247.779 24.088C248.579 24.088 249.155 23.9653 249.507 23.72C249.859 23.464 250.035 23.128 250.035 22.712C250.035 22.4027 249.934 22.1627 249.731 21.992C249.539 21.8107 249.283 21.6773 248.963 21.592C248.643 21.496 248.286 21.416 247.891 21.352C247.497 21.288 247.102 21.2133 246.707 21.128C246.323 21.0427 245.971 20.92 245.651 20.76C245.331 20.5893 245.07 20.36 244.867 20.072C244.675 19.784 244.579 19.4 244.579 18.92C244.579 18.4613 244.707 18.0507 244.963 17.688C245.219 17.3253 245.593 17.0427 246.083 16.84C246.585 16.6267 247.193 16.52 247.907 16.52C248.451 16.52 248.995 16.5947 249.539 16.744C250.083 16.8827 250.531 17.0693 250.883 17.304L250.387 18.216C250.014 17.96 249.614 17.7787 249.187 17.672C248.761 17.5547 248.334 17.496 247.907 17.496C247.15 17.496 246.59 17.6293 246.227 17.896C245.875 18.152 245.699 18.4827 245.699 18.888C245.699 19.208 245.795 19.4587 245.987 19.64C246.19 19.8213 246.451 19.9653 246.771 20.072C247.102 20.168 247.459 20.248 247.843 20.312C248.238 20.376 248.627 20.456 249.011 20.552C249.406 20.6373 249.763 20.76 250.083 20.92C250.414 21.0693 250.675 21.288 250.867 21.576C251.07 21.8533 251.171 22.2213 251.171 22.68C251.171 23.1707 251.033 23.5973 250.755 23.96C250.489 24.312 250.094 24.5893 249.571 24.792C249.059 24.984 248.435 25.08 247.699 25.08Z" fill="black"/>
</svg>
