<svg width="280" height="38" viewBox="0 0 280 38" fill="none" xmlns="http://www.w3.org/2000/svg">
<rect width="280" height="38" rx="19" fill="#E30613"/>
<path d="M34.8521 25.096C34.0094 25.096 33.2307 24.9573 32.5161 24.68C31.8014 24.392 31.1827 23.992 30.6601 23.48C30.1374 22.968 29.7267 22.3653 29.4281 21.672C29.1401 20.9787 28.9961 20.2213 28.9961 19.4C28.9961 18.5787 29.1401 17.8213 29.4281 17.128C29.7267 16.4347 30.1374 15.832 30.6601 15.32C31.1934 14.808 31.8174 14.4133 32.5321 14.136C33.2467 13.848 34.0254 13.704 34.8681 13.704C35.6787 13.704 36.4414 13.8427 37.1561 14.12C37.8707 14.3867 38.4734 14.792 38.9641 15.336L38.2121 16.088C37.7534 15.6187 37.2467 15.2827 36.6921 15.08C36.1374 14.8667 35.5401 14.76 34.9001 14.76C34.2281 14.76 33.6041 14.8773 33.0281 15.112C32.4521 15.336 31.9507 15.6613 31.5241 16.088C31.0974 16.504 30.7614 16.9947 30.5161 17.56C30.2814 18.1147 30.1641 18.728 30.1641 19.4C30.1641 20.072 30.2814 20.6907 30.5161 21.256C30.7614 21.8107 31.0974 22.3013 31.5241 22.728C31.9507 23.144 32.4521 23.4693 33.0281 23.704C33.6041 23.928 34.2281 24.04 34.9001 24.04C35.5401 24.04 36.1374 23.9333 36.6921 23.72C37.2467 23.5067 37.7534 23.1653 38.2121 22.696L38.9641 23.448C38.4734 23.992 37.8707 24.4027 37.1561 24.68C36.4414 24.9573 35.6734 25.096 34.8521 25.096ZM44.2971 25.08C43.4864 25.08 42.7557 24.8987 42.1051 24.536C41.4651 24.1627 40.9584 23.656 40.5851 23.016C40.2117 22.3653 40.0251 21.624 40.0251 20.792C40.0251 19.9493 40.2117 19.208 40.5851 18.568C40.9584 17.928 41.4651 17.4267 42.1051 17.064C42.7451 16.7013 43.4757 16.52 44.2971 16.52C45.1291 16.52 45.8651 16.7013 46.5051 17.064C47.1557 17.4267 47.6624 17.928 48.0251 18.568C48.3984 19.208 48.5851 19.9493 48.5851 20.792C48.5851 21.624 48.3984 22.3653 48.0251 23.016C47.6624 23.656 47.1557 24.1627 46.5051 24.536C45.8544 24.8987 45.1184 25.08 44.2971 25.08ZM44.2971 24.072C44.9051 24.072 45.4437 23.9387 45.9131 23.672C46.3824 23.3947 46.7504 23.0107 47.0171 22.52C47.2944 22.0187 47.4331 21.4427 47.4331 20.792C47.4331 20.1307 47.2944 19.5547 47.0171 19.064C46.7504 18.5733 46.3824 18.1947 45.9131 17.928C45.4437 17.6507 44.9104 17.512 44.3131 17.512C43.7157 17.512 43.1824 17.6507 42.7131 17.928C42.2437 18.1947 41.8704 18.5733 41.5931 19.064C41.3157 19.5547 41.1771 20.1307 41.1771 20.792C41.1771 21.4427 41.3157 22.0187 41.5931 22.52C41.8704 23.0107 42.2437 23.3947 42.7131 23.672C43.1824 23.9387 43.7104 24.072 44.2971 24.072ZM55.1923 16.52C55.875 16.52 56.4723 16.6533 56.9843 16.92C57.507 17.176 57.9123 17.5707 58.2003 18.104C58.499 18.6373 58.6483 19.3093 58.6483 20.12V25H57.5123V20.232C57.5123 19.3467 57.2883 18.68 56.8403 18.232C56.403 17.7733 55.7843 17.544 54.9843 17.544C54.387 17.544 53.8643 17.6667 53.4163 17.912C52.979 18.1467 52.6376 18.4933 52.3923 18.952C52.1576 19.4 52.0403 19.944 52.0403 20.584V25H50.9043V16.6H51.9923V18.904L51.8163 18.472C52.083 17.864 52.5096 17.3893 53.0963 17.048C53.683 16.696 54.3816 16.52 55.1923 16.52ZM61.9088 25V15.544C61.9088 14.7973 62.1275 14.1947 62.5648 13.736C63.0021 13.2773 63.6315 13.048 64.4528 13.048C64.7728 13.048 65.0821 13.0907 65.3808 13.176C65.6795 13.2613 65.9301 13.3947 66.1328 13.576L65.7488 14.424C65.5888 14.2853 65.4021 14.184 65.1888 14.12C64.9755 14.0453 64.7461 14.008 64.5008 14.008C64.0208 14.008 63.6528 14.1413 63.3968 14.408C63.1408 14.6747 63.0128 15.0693 63.0128 15.592V16.872L63.0448 17.4V25H61.9088ZM60.4048 17.544V16.6H65.6048V17.544H60.4048ZM67.1408 25V16.6H68.2768V25H67.1408ZM67.7168 14.744C67.4821 14.744 67.2848 14.664 67.1248 14.504C66.9648 14.344 66.8848 14.152 66.8848 13.928C66.8848 13.704 66.9648 13.5173 67.1248 13.368C67.2848 13.208 67.4821 13.128 67.7168 13.128C67.9515 13.128 68.1488 13.2027 68.3088 13.352C68.4688 13.5013 68.5488 13.688 68.5488 13.912C68.5488 14.1467 68.4688 14.344 68.3088 14.504C68.1595 14.664 67.9621 14.744 67.7168 14.744ZM71.4668 25V16.6H72.5548V18.888L72.4428 18.488C72.6775 17.848 73.0721 17.3627 73.6268 17.032C74.1815 16.6907 74.8695 16.52 75.6908 16.52V17.624C75.6481 17.624 75.6055 17.624 75.5628 17.624C75.5201 17.6133 75.4775 17.608 75.4348 17.608C74.5495 17.608 73.8561 17.88 73.3548 18.424C72.8535 18.9573 72.6028 19.72 72.6028 20.712V25H71.4668ZM82.4027 25V23.144L82.3547 22.84V19.736C82.3547 19.0213 82.152 18.472 81.7467 18.088C81.352 17.704 80.76 17.512 79.9707 17.512C79.4267 17.512 78.9094 17.6027 78.4187 17.784C77.928 17.9653 77.512 18.2053 77.1707 18.504L76.6587 17.656C77.0854 17.2933 77.5974 17.016 78.1947 16.824C78.792 16.6213 79.4214 16.52 80.0827 16.52C81.1707 16.52 82.008 16.792 82.5947 17.336C83.192 17.8693 83.4907 18.6853 83.4907 19.784V25H82.4027ZM79.5067 25.08C78.8774 25.08 78.328 24.9787 77.8587 24.776C77.4 24.5627 77.048 24.2747 76.8027 23.912C76.5574 23.5387 76.4347 23.112 76.4347 22.632C76.4347 22.1947 76.536 21.8 76.7387 21.448C76.952 21.0853 77.2934 20.7973 77.7627 20.584C78.2427 20.36 78.8827 20.248 79.6827 20.248H82.5787V21.096H79.7147C78.904 21.096 78.3387 21.24 78.0187 21.528C77.7094 21.816 77.5547 22.1733 77.5547 22.6C77.5547 23.08 77.7414 23.464 78.1147 23.752C78.488 24.04 79.0107 24.184 79.6827 24.184C80.3227 24.184 80.872 24.04 81.3307 23.752C81.8 23.4533 82.1414 23.0267 82.3547 22.472L82.6107 23.256C82.3974 23.8107 82.024 24.2533 81.4907 24.584C80.968 24.9147 80.3067 25.08 79.5067 25.08ZM93.4197 25.08C92.6304 25.08 92.0224 24.8667 91.5957 24.44C91.169 24.0133 90.9557 23.4107 90.9557 22.632V14.744H92.0917V22.568C92.0917 23.0587 92.2144 23.4373 92.4597 23.704C92.7157 23.9707 93.0784 24.104 93.5477 24.104C94.049 24.104 94.465 23.96 94.7957 23.672L95.1957 24.488C94.9717 24.6907 94.6997 24.84 94.3797 24.936C94.0704 25.032 93.7504 25.08 93.4197 25.08ZM89.4517 17.544V16.6H94.6517V17.544H89.4517ZM100.391 25.08C99.5801 25.08 98.8495 24.8987 98.1988 24.536C97.5588 24.1627 97.0521 23.656 96.6788 23.016C96.3055 22.3653 96.1188 21.624 96.1188 20.792C96.1188 19.9493 96.3055 19.208 96.6788 18.568C97.0521 17.928 97.5588 17.4267 98.1988 17.064C98.8388 16.7013 99.5695 16.52 100.391 16.52C101.223 16.52 101.959 16.7013 102.599 17.064C103.249 17.4267 103.756 17.928 104.119 18.568C104.492 19.208 104.679 19.9493 104.679 20.792C104.679 21.624 104.492 22.3653 104.119 23.016C103.756 23.656 103.249 24.1627 102.599 24.536C101.948 24.8987 101.212 25.08 100.391 25.08ZM100.391 24.072C100.999 24.072 101.537 23.9387 102.007 23.672C102.476 23.3947 102.844 23.0107 103.111 22.52C103.388 22.0187 103.527 21.4427 103.527 20.792C103.527 20.1307 103.388 19.5547 103.111 19.064C102.844 18.5733 102.476 18.1947 102.007 17.928C101.537 17.6507 101.004 17.512 100.407 17.512C99.8095 17.512 99.2761 17.6507 98.8068 17.928C98.3375 18.1947 97.9641 18.5733 97.6868 19.064C97.4095 19.5547 97.2708 20.1307 97.2708 20.792C97.2708 21.4427 97.4095 22.0187 97.6868 22.52C97.9641 23.0107 98.3375 23.3947 98.8068 23.672C99.2761 23.9387 99.8041 24.072 100.391 24.072ZM110.342 25.08C109.542 25.08 108.822 24.8987 108.182 24.536C107.553 24.1733 107.057 23.672 106.694 23.032C106.331 22.3813 106.15 21.6347 106.15 20.792C106.15 19.9387 106.331 19.192 106.694 18.552C107.057 17.912 107.553 17.416 108.182 17.064C108.822 16.7013 109.542 16.52 110.342 16.52C111.078 16.52 111.734 16.6853 112.31 17.016C112.897 17.3467 113.361 17.832 113.702 18.472C114.054 19.1013 114.23 19.8747 114.23 20.792C114.23 21.6987 114.059 22.472 113.718 23.112C113.377 23.752 112.913 24.2427 112.326 24.584C111.75 24.9147 111.089 25.08 110.342 25.08ZM110.422 24.072C111.019 24.072 111.553 23.9387 112.022 23.672C112.502 23.3947 112.875 23.0107 113.142 22.52C113.419 22.0187 113.558 21.4427 113.558 20.792C113.558 20.1307 113.419 19.5547 113.142 19.064C112.875 18.5733 112.502 18.1947 112.022 17.928C111.553 17.6507 111.019 17.512 110.422 17.512C109.835 17.512 109.307 17.6507 108.838 17.928C108.369 18.1947 107.995 18.5733 107.718 19.064C107.441 19.5547 107.302 20.1307 107.302 20.792C107.302 21.4427 107.441 22.0187 107.718 22.52C107.995 23.0107 108.369 23.3947 108.838 23.672C109.307 23.9387 109.835 24.072 110.422 24.072ZM113.59 25V22.472L113.702 20.776L113.542 19.08V13.128H114.678V25H113.59ZM121.266 25.08C120.455 25.08 119.724 24.8987 119.074 24.536C118.434 24.1627 117.927 23.656 117.554 23.016C117.18 22.3653 116.994 21.624 116.994 20.792C116.994 19.9493 117.18 19.208 117.554 18.568C117.927 17.928 118.434 17.4267 119.074 17.064C119.714 16.7013 120.444 16.52 121.266 16.52C122.098 16.52 122.834 16.7013 123.474 17.064C124.124 17.4267 124.631 17.928 124.994 18.568C125.367 19.208 125.554 19.9493 125.554 20.792C125.554 21.624 125.367 22.3653 124.994 23.016C124.631 23.656 124.124 24.1627 123.474 24.536C122.823 24.8987 122.087 25.08 121.266 25.08ZM121.266 24.072C121.874 24.072 122.412 23.9387 122.882 23.672C123.351 23.3947 123.719 23.0107 123.986 22.52C124.263 22.0187 124.402 21.4427 124.402 20.792C124.402 20.1307 124.263 19.5547 123.986 19.064C123.719 18.5733 123.351 18.1947 122.882 17.928C122.412 17.6507 121.879 17.512 121.282 17.512C120.684 17.512 120.151 17.6507 119.682 17.928C119.212 18.1947 118.839 18.5733 118.562 19.064C118.284 19.5547 118.146 20.1307 118.146 20.792C118.146 21.4427 118.284 22.0187 118.562 22.52C118.839 23.0107 119.212 23.3947 119.682 23.672C120.151 23.9387 120.679 24.072 121.266 24.072ZM130.129 25.08C129.436 25.08 128.78 24.984 128.161 24.792C127.542 24.5893 127.057 24.3387 126.705 24.04L127.217 23.144C127.558 23.4 127.996 23.624 128.529 23.816C129.062 23.9973 129.622 24.088 130.209 24.088C131.009 24.088 131.585 23.9653 131.937 23.72C132.289 23.464 132.465 23.128 132.465 22.712C132.465 22.4027 132.364 22.1627 132.161 21.992C131.969 21.8107 131.713 21.6773 131.393 21.592C131.073 21.496 130.716 21.416 130.321 21.352C129.926 21.288 129.532 21.2133 129.137 21.128C128.753 21.0427 128.401 20.92 128.081 20.76C127.761 20.5893 127.5 20.36 127.297 20.072C127.105 19.784 127.009 19.4 127.009 18.92C127.009 18.4613 127.137 18.0507 127.393 17.688C127.649 17.3253 128.022 17.0427 128.513 16.84C129.014 16.6267 129.622 16.52 130.337 16.52C130.881 16.52 131.425 16.5947 131.969 16.744C132.513 16.8827 132.961 17.0693 133.313 17.304L132.817 18.216C132.444 17.96 132.044 17.7787 131.617 17.672C131.19 17.5547 130.764 17.496 130.337 17.496C129.58 17.496 129.02 17.6293 128.657 17.896C128.305 18.152 128.129 18.4827 128.129 18.888C128.129 19.208 128.225 19.4587 128.417 19.64C128.62 19.8213 128.881 19.9653 129.201 20.072C129.532 20.168 129.889 20.248 130.273 20.312C130.668 20.376 131.057 20.456 131.441 20.552C131.836 20.6373 132.193 20.76 132.513 20.92C132.844 21.0693 133.105 21.288 133.297 21.576C133.5 21.8533 133.601 22.2213 133.601 22.68C133.601 23.1707 133.462 23.5973 133.185 23.96C132.918 24.312 132.524 24.5893 132.001 24.792C131.489 24.984 130.865 25.08 130.129 25.08ZM143.297 25.08C142.486 25.08 141.756 24.8987 141.105 24.536C140.465 24.1627 139.958 23.656 139.585 23.016C139.212 22.3653 139.025 21.624 139.025 20.792C139.025 19.9493 139.212 19.208 139.585 18.568C139.958 17.928 140.465 17.4267 141.105 17.064C141.745 16.7013 142.476 16.52 143.297 16.52C144.129 16.52 144.865 16.7013 145.505 17.064C146.156 17.4267 146.662 17.928 147.025 18.568C147.398 19.208 147.585 19.9493 147.585 20.792C147.585 21.624 147.398 22.3653 147.025 23.016C146.662 23.656 146.156 24.1627 145.505 24.536C144.854 24.8987 144.118 25.08 143.297 25.08ZM143.297 24.072C143.905 24.072 144.444 23.9387 144.913 23.672C145.382 23.3947 145.75 23.0107 146.017 22.52C146.294 22.0187 146.433 21.4427 146.433 20.792C146.433 20.1307 146.294 19.5547 146.017 19.064C145.75 18.5733 145.382 18.1947 144.913 17.928C144.444 17.6507 143.91 17.512 143.313 17.512C142.716 17.512 142.182 17.6507 141.713 17.928C141.244 18.1947 140.87 18.5733 140.593 19.064C140.316 19.5547 140.177 20.1307 140.177 20.792C140.177 21.4427 140.316 22.0187 140.593 22.52C140.87 23.0107 141.244 23.3947 141.713 23.672C142.182 23.9387 142.71 24.072 143.297 24.072ZM152.16 25.08C151.467 25.08 150.811 24.984 150.192 24.792C149.574 24.5893 149.088 24.3387 148.736 24.04L149.248 23.144C149.59 23.4 150.027 23.624 150.56 23.816C151.094 23.9973 151.654 24.088 152.24 24.088C153.04 24.088 153.616 23.9653 153.968 23.72C154.32 23.464 154.496 23.128 154.496 22.712C154.496 22.4027 154.395 22.1627 154.192 21.992C154 21.8107 153.744 21.6773 153.424 21.592C153.104 21.496 152.747 21.416 152.352 21.352C151.958 21.288 151.563 21.2133 151.168 21.128C150.784 21.0427 150.432 20.92 150.112 20.76C149.792 20.5893 149.531 20.36 149.328 20.072C149.136 19.784 149.04 19.4 149.04 18.92C149.04 18.4613 149.168 18.0507 149.424 17.688C149.68 17.3253 150.054 17.0427 150.544 16.84C151.046 16.6267 151.654 16.52 152.368 16.52C152.912 16.52 153.456 16.5947 154 16.744C154.544 16.8827 154.992 17.0693 155.344 17.304L154.848 18.216C154.475 17.96 154.075 17.7787 153.648 17.672C153.222 17.5547 152.795 17.496 152.368 17.496C151.611 17.496 151.051 17.6293 150.688 17.896C150.336 18.152 150.16 18.4827 150.16 18.888C150.16 19.208 150.256 19.4587 150.448 19.64C150.651 19.8213 150.912 19.9653 151.232 20.072C151.563 20.168 151.92 20.248 152.304 20.312C152.699 20.376 153.088 20.456 153.472 20.552C153.867 20.6373 154.224 20.76 154.544 20.92C154.875 21.0693 155.136 21.288 155.328 21.576C155.531 21.8533 155.632 22.2213 155.632 22.68C155.632 23.1707 155.494 23.5973 155.216 23.96C154.95 24.312 154.555 24.5893 154.032 24.792C153.52 24.984 152.896 25.08 152.16 25.08ZM161.904 25V16.6H163.04V25H161.904ZM162.48 14.744C162.246 14.744 162.048 14.664 161.888 14.504C161.728 14.344 161.648 14.152 161.648 13.928C161.648 13.704 161.728 13.5173 161.888 13.368C162.048 13.208 162.246 13.128 162.48 13.128C162.715 13.128 162.912 13.2027 163.072 13.352C163.232 13.5013 163.312 13.688 163.312 13.912C163.312 14.1467 163.232 14.344 163.072 14.504C162.923 14.664 162.726 14.744 162.48 14.744ZM170.489 16.52C171.172 16.52 171.769 16.6533 172.281 16.92C172.804 17.176 173.209 17.5707 173.497 18.104C173.796 18.6373 173.945 19.3093 173.945 20.12V25H172.809V20.232C172.809 19.3467 172.585 18.68 172.137 18.232C171.7 17.7733 171.081 17.544 170.281 17.544C169.684 17.544 169.161 17.6667 168.713 17.912C168.276 18.1467 167.935 18.4933 167.689 18.952C167.455 19.4 167.337 19.944 167.337 20.584V25H166.201V16.6H167.289V18.904L167.113 18.472C167.38 17.864 167.807 17.3893 168.393 17.048C168.98 16.696 169.679 16.52 170.489 16.52ZM179.67 25.08C178.88 25.08 178.272 24.8667 177.846 24.44C177.419 24.0133 177.206 23.4107 177.206 22.632V14.744H178.342V22.568C178.342 23.0587 178.464 23.4373 178.71 23.704C178.966 23.9707 179.328 24.104 179.798 24.104C180.299 24.104 180.715 23.96 181.046 23.672L181.446 24.488C181.222 24.6907 180.95 24.84 180.63 24.936C180.32 25.032 180 25.08 179.67 25.08ZM175.702 17.544V16.6H180.902V17.544H175.702ZM186.785 25.08C185.91 25.08 185.142 24.8987 184.481 24.536C183.819 24.1627 183.302 23.656 182.929 23.016C182.555 22.3653 182.369 21.624 182.369 20.792C182.369 19.96 182.545 19.224 182.897 18.584C183.259 17.944 183.75 17.4427 184.369 17.08C184.998 16.7067 185.702 16.52 186.481 16.52C187.27 16.52 187.969 16.7013 188.577 17.064C189.195 17.416 189.681 17.9173 190.033 18.568C190.385 19.208 190.561 19.9493 190.561 20.792C190.561 20.8453 190.555 20.904 190.545 20.968C190.545 21.0213 190.545 21.08 190.545 21.144H183.233V20.296H189.937L189.489 20.632C189.489 20.024 189.355 19.4853 189.089 19.016C188.833 18.536 188.481 18.1627 188.033 17.896C187.585 17.6293 187.067 17.496 186.481 17.496C185.905 17.496 185.387 17.6293 184.929 17.896C184.47 18.1627 184.113 18.536 183.857 19.016C183.601 19.496 183.473 20.0453 183.473 20.664V20.84C183.473 21.48 183.611 22.0453 183.889 22.536C184.177 23.016 184.571 23.3947 185.073 23.672C185.585 23.9387 186.166 24.072 186.817 24.072C187.329 24.072 187.803 23.9813 188.241 23.8C188.689 23.6187 189.073 23.3413 189.393 22.968L190.033 23.704C189.659 24.152 189.19 24.4933 188.625 24.728C188.07 24.9627 187.457 25.08 186.785 25.08ZM196.457 28.184C195.689 28.184 194.953 28.072 194.249 27.848C193.545 27.624 192.974 27.304 192.537 26.888L193.113 26.024C193.508 26.376 193.993 26.6533 194.569 26.856C195.156 27.0693 195.774 27.176 196.425 27.176C197.492 27.176 198.276 26.9253 198.777 26.424C199.278 25.9333 199.529 25.1653 199.529 24.12V22.024L199.689 20.584L199.577 19.144V16.6H200.665V23.976C200.665 25.4267 200.308 26.488 199.593 27.16C198.889 27.8427 197.844 28.184 196.457 28.184ZM196.249 24.68C195.449 24.68 194.729 24.5093 194.089 24.168C193.449 23.816 192.942 23.3307 192.569 22.712C192.206 22.0933 192.025 21.384 192.025 20.584C192.025 19.784 192.206 19.08 192.569 18.472C192.942 17.8533 193.449 17.3733 194.089 17.032C194.729 16.6907 195.449 16.52 196.249 16.52C196.996 16.52 197.668 16.6747 198.265 16.984C198.862 17.2933 199.337 17.752 199.689 18.36C200.041 18.968 200.217 19.7093 200.217 20.584C200.217 21.4587 200.041 22.2 199.689 22.808C199.337 23.416 198.862 23.88 198.265 24.2C197.668 24.52 196.996 24.68 196.249 24.68ZM196.361 23.672C196.98 23.672 197.529 23.544 198.009 23.288C198.489 23.0213 198.868 22.6587 199.145 22.2C199.422 21.7307 199.561 21.192 199.561 20.584C199.561 19.976 199.422 19.4427 199.145 18.984C198.868 18.5253 198.489 18.168 198.009 17.912C197.529 17.6453 196.98 17.512 196.361 17.512C195.753 17.512 195.204 17.6453 194.713 17.912C194.233 18.168 193.854 18.5253 193.577 18.984C193.31 19.4427 193.177 19.976 193.177 20.584C193.177 21.192 193.31 21.7307 193.577 22.2C193.854 22.6587 194.233 23.0213 194.713 23.288C195.204 23.544 195.753 23.672 196.361 23.672ZM203.826 25V16.6H204.914V18.888L204.802 18.488C205.037 17.848 205.432 17.3627 205.986 17.032C206.541 16.6907 207.229 16.52 208.05 16.52V17.624C208.008 17.624 207.965 17.624 207.922 17.624C207.88 17.6133 207.837 17.608 207.794 17.608C206.909 17.608 206.216 17.88 205.714 18.424C205.213 18.9573 204.962 19.72 204.962 20.712V25H203.826ZM214.762 25V23.144L214.714 22.84V19.736C214.714 19.0213 214.511 18.472 214.106 18.088C213.711 17.704 213.119 17.512 212.33 17.512C211.786 17.512 211.269 17.6027 210.778 17.784C210.287 17.9653 209.871 18.2053 209.53 18.504L209.018 17.656C209.445 17.2933 209.957 17.016 210.554 16.824C211.151 16.6213 211.781 16.52 212.442 16.52C213.53 16.52 214.367 16.792 214.954 17.336C215.551 17.8693 215.85 18.6853 215.85 19.784V25H214.762ZM211.866 25.08C211.237 25.08 210.687 24.9787 210.218 24.776C209.759 24.5627 209.407 24.2747 209.162 23.912C208.917 23.5387 208.794 23.112 208.794 22.632C208.794 22.1947 208.895 21.8 209.098 21.448C209.311 21.0853 209.653 20.7973 210.122 20.584C210.602 20.36 211.242 20.248 212.042 20.248H214.938V21.096H212.074C211.263 21.096 210.698 21.24 210.378 21.528C210.069 21.816 209.914 22.1733 209.914 22.6C209.914 23.08 210.101 23.464 210.474 23.752C210.847 24.04 211.37 24.184 212.042 24.184C212.682 24.184 213.231 24.04 213.69 23.752C214.159 23.4533 214.501 23.0267 214.714 22.472L214.97 23.256C214.757 23.8107 214.383 24.2533 213.85 24.584C213.327 24.9147 212.666 25.08 211.866 25.08ZM223.224 16.52C223.906 16.52 224.504 16.6533 225.016 16.92C225.538 17.176 225.944 17.5707 226.232 18.104C226.53 18.6373 226.68 19.3093 226.68 20.12V25H225.544V20.232C225.544 19.3467 225.32 18.68 224.872 18.232C224.434 17.7733 223.816 17.544 223.016 17.544C222.418 17.544 221.896 17.6667 221.448 17.912C221.01 18.1467 220.669 18.4933 220.424 18.952C220.189 19.4 220.072 19.944 220.072 20.584V25H218.936V16.6H220.024V18.904L219.848 18.472C220.114 17.864 220.541 17.3893 221.128 17.048C221.714 16.696 222.413 16.52 223.224 16.52ZM232.404 25.08C231.615 25.08 231.007 24.8667 230.58 24.44C230.153 24.0133 229.94 23.4107 229.94 22.632V14.744H231.076V22.568C231.076 23.0587 231.199 23.4373 231.444 23.704C231.7 23.9707 232.063 24.104 232.532 24.104C233.033 24.104 233.449 23.96 233.78 23.672L234.18 24.488C233.956 24.6907 233.684 24.84 233.364 24.936C233.055 25.032 232.735 25.08 232.404 25.08ZM228.436 17.544V16.6H233.636V17.544H228.436ZM239.519 25.08C238.645 25.08 237.877 24.8987 237.215 24.536C236.554 24.1627 236.037 23.656 235.663 23.016C235.29 22.3653 235.103 21.624 235.103 20.792C235.103 19.96 235.279 19.224 235.631 18.584C235.994 17.944 236.485 17.4427 237.103 17.08C237.733 16.7067 238.437 16.52 239.215 16.52C240.005 16.52 240.703 16.7013 241.311 17.064C241.93 17.416 242.415 17.9173 242.767 18.568C243.119 19.208 243.295 19.9493 243.295 20.792C243.295 20.8453 243.29 20.904 243.279 20.968C243.279 21.0213 243.279 21.08 243.279 21.144H235.967V20.296H242.671L242.223 20.632C242.223 20.024 242.09 19.4853 241.823 19.016C241.567 18.536 241.215 18.1627 240.767 17.896C240.319 17.6293 239.802 17.496 239.215 17.496C238.639 17.496 238.122 17.6293 237.663 17.896C237.205 18.1627 236.847 18.536 236.591 19.016C236.335 19.496 236.207 20.0453 236.207 20.664V20.84C236.207 21.48 236.346 22.0453 236.623 22.536C236.911 23.016 237.306 23.3947 237.807 23.672C238.319 23.9387 238.901 24.072 239.551 24.072C240.063 24.072 240.538 23.9813 240.975 23.8C241.423 23.6187 241.807 23.3413 242.127 22.968L242.767 23.704C242.394 24.152 241.925 24.4933 241.359 24.728C240.805 24.9627 240.191 25.08 239.519 25.08ZM247.863 25.08C247.17 25.08 246.514 24.984 245.895 24.792C245.277 24.5893 244.791 24.3387 244.439 24.04L244.951 23.144C245.293 23.4 245.73 23.624 246.263 23.816C246.797 23.9973 247.357 24.088 247.943 24.088C248.743 24.088 249.319 23.9653 249.671 23.72C250.023 23.464 250.199 23.128 250.199 22.712C250.199 22.4027 250.098 22.1627 249.895 21.992C249.703 21.8107 249.447 21.6773 249.127 21.592C248.807 21.496 248.45 21.416 248.055 21.352C247.661 21.288 247.266 21.2133 246.871 21.128C246.487 21.0427 246.135 20.92 245.815 20.76C245.495 20.5893 245.234 20.36 245.031 20.072C244.839 19.784 244.743 19.4 244.743 18.92C244.743 18.4613 244.871 18.0507 245.127 17.688C245.383 17.3253 245.757 17.0427 246.247 16.84C246.749 16.6267 247.357 16.52 248.071 16.52C248.615 16.52 249.159 16.5947 249.703 16.744C250.247 16.8827 250.695 17.0693 251.047 17.304L250.551 18.216C250.178 17.96 249.778 17.7787 249.351 17.672C248.925 17.5547 248.498 17.496 248.071 17.496C247.314 17.496 246.754 17.6293 246.391 17.896C246.039 18.152 245.863 18.4827 245.863 18.888C245.863 19.208 245.959 19.4587 246.151 19.64C246.354 19.8213 246.615 19.9653 246.935 20.072C247.266 20.168 247.623 20.248 248.007 20.312C248.402 20.376 248.791 20.456 249.175 20.552C249.57 20.6373 249.927 20.76 250.247 20.92C250.578 21.0693 250.839 21.288 251.031 21.576C251.234 21.8533 251.335 22.2213 251.335 22.68C251.335 23.1707 251.197 23.5973 250.919 23.96C250.653 24.312 250.258 24.5893 249.735 24.792C249.223 24.984 248.599 25.08 247.863 25.08Z" fill="white"/>
</svg>
